<?xml version="1.0" encoding="UTF-8" standalone="no"?>
<!DOCTYPE svg PUBLIC "-//W3C//DTD SVG 1.1//EN"
 "http://www.w3.org/Graphics/SVG/1.1/DTD/svg11.dtd">
<!-- Generated by graphviz version 13.1.2 (20250808.2320)
 -->
<!-- Title: tokens Pages: 1 -->
<svg width="1555pt" height="126pt"
 viewBox="0.00 0.00 1555.00 126.00" xmlns="http://www.w3.org/2000/svg" xmlns:xlink="http://www.w3.org/1999/xlink">
<g id="graph0" class="graph" transform="scale(1 1) rotate(0) translate(4 121.51)">
<title>tokens</title>
<polygon fill="white" stroke="none" points="-4,4 -4,-121.51 1551.45,-121.51 1551.45,4 -4,4"/>
<!-- 0 -->
<g id="node1" class="node">
<title>0</title>
<path fill="#e8e8f0" stroke="black" d="M52.6,-17C52.6,-17 82.6,-17 82.6,-17 88.6,-17 94.6,-23 94.6,-29 94.6,-29 94.6,-41 94.6,-41 94.6,-47 88.6,-53 82.6,-53 82.6,-53 52.6,-53 52.6,-53 46.6,-53 40.6,-47 40.6,-41 40.6,-41 40.6,-29 40.6,-29 40.6,-23 46.6,-17 52.6,-17"/>
<text xml:space="preserve" text-anchor="middle" x="67.6" y="-29.2" font-family="Helvetica,sans-Serif" font-size="14.00">0</text>
</g>
<!-- 1 -->
<g id="node3" class="node">
<title>1</title>
<path fill="#e8e8f0" stroke="black" d="M194.35,-17C194.35,-17 224.35,-17 224.35,-17 230.35,-17 236.35,-23 236.35,-29 236.35,-29 236.35,-41 236.35,-41 236.35,-47 230.35,-53 224.35,-53 224.35,-53 194.35,-53 194.35,-53 188.35,-53 182.35,-47 182.35,-41 182.35,-41 182.35,-29 182.35,-29 182.35,-23 188.35,-17 194.35,-17"/>
<text xml:space="preserve" text-anchor="middle" x="209.35" y="-29.2" font-family="Helvetica,sans-Serif" font-size="14.00">1</text>
</g>
<!-- 0&#45;&gt;1 -->
<g id="edge2" class="edge">
<title>0&#45;&gt;1</title>
<path fill="none" stroke="#606060" d="M94.89,-35C116.36,-35 146.97,-35 170.99,-35"/>
<polygon fill="#606060" stroke="#606060" points="170.67,-38.5 180.67,-35 170.67,-31.5 170.67,-38.5"/>
<text xml:space="preserve" text-anchor="middle" x="138.47" y="-36.7" font-family="Helvetica,sans-Serif" font-size="14.00" fill="red">this / 0&#45;4</text>
</g>
<!-- &#45;1 -->
<g id="node2" class="node">
<title>&#45;1</title>
<ellipse fill="#e8e8f0" stroke="white" cx="1.8" cy="-35" rx="1.8" ry="1.8"/>
</g>
<!-- &#45;1&#45;&gt;0 -->
<g id="edge1" class="edge">
<title>&#45;1&#45;&gt;0</title>
<path fill="none" stroke="#606060" d="M3.91,-35C7.21,-35 17.46,-35 28.73,-35"/>
<polygon fill="#606060" stroke="#606060" points="28.62,-38.5 38.62,-35 28.62,-31.5 28.62,-38.5"/>
</g>
<!-- 2 -->
<g id="node4" class="node">
<title>2</title>
<path fill="#e8e8f0" stroke="black" d="M340.6,-53C340.6,-53 370.6,-53 370.6,-53 376.6,-53 382.6,-59 382.6,-65 382.6,-65 382.6,-77 382.6,-77 382.6,-83 376.6,-89 370.6,-89 370.6,-89 340.6,-89 340.6,-89 334.6,-89 328.6,-83 328.6,-77 328.6,-77 328.6,-65 328.6,-65 328.6,-59 334.6,-53 340.6,-53"/>
<text xml:space="preserve" text-anchor="middle" x="355.6" y="-65.2" font-family="Helvetica,sans-Serif" font-size="14.00">2</text>
</g>
<!-- 1&#45;&gt;2 -->
<g id="edge3" class="edge">
<title>1&#45;&gt;2</title>
<path fill="none" stroke="#606060" d="M236.81,-41.6C259.38,-47.24 292.08,-55.4 317.31,-61.69"/>
<polygon fill="#606060" stroke="#606060" points="316.29,-65.05 326.84,-64.07 317.99,-58.26 316.29,-65.05"/>
<text xml:space="preserve" text-anchor="middle" x="274.6" y="-56.86" font-family="Helvetica,sans-Serif" font-size="14.00" fill="red">is / 5&#45;7</text>
</g>
<!-- 3 -->
<g id="node5" class="node">
<title>3</title>
<path fill="#e8e8f0" stroke="black" d="M484.6,-17C484.6,-17 514.6,-17 514.6,-17 520.6,-17 526.6,-23 526.6,-29 526.6,-29 526.6,-41 526.6,-41 526.6,-47 520.6,-53 514.6,-53 514.6,-53 484.6,-53 484.6,-53 478.6,-53 472.6,-47 472.6,-41 472.6,-41 472.6,-29 472.6,-29 472.6,-23 478.6,-17 484.6,-17"/>
<text xml:space="preserve" text-anchor="middle" x="499.6" y="-29.2" font-family="Helvetica,sans-Serif" font-size="14.00">3</text>
</g>
<!-- 1&#45;&gt;3 -->
<g id="edge4" class="edge">
<title>1&#45;&gt;3</title>
<path fill="none" stroke="#606060" d="M236.45,-33.05C257.16,-31.61 286.84,-29.76 312.85,-29 350.83,-27.89 360.37,-27.86 398.35,-29 419.03,-29.62 442.09,-30.95 460.87,-32.21"/>
<polygon fill="#606060" stroke="#606060" points="460.51,-35.69 470.73,-32.89 460.99,-28.71 460.51,-35.69"/>
<text xml:space="preserve" text-anchor="middle" x="355.6" y="-30.7" font-family="Helvetica,sans-Serif" font-size="14.00" fill="red">concept1 / 5&#45;9</text>
</g>
<!-- 2&#45;&gt;3 -->
<g id="edge5" class="edge">
<title>2&#45;&gt;3</title>
<path fill="none" stroke="#606060" d="M382.98,-64.31C404.99,-58.73 436.64,-50.71 461.26,-44.47"/>
<polygon fill="#606060" stroke="#606060" points="462.06,-47.87 470.9,-42.02 460.34,-41.09 462.06,-47.87"/>
<text xml:space="preserve" text-anchor="middle" x="435.47" y="-56.86" font-family="Helvetica,sans-Serif" font-size="14.00" fill="red">a / 8&#45;9</text>
</g>
<!-- 4 -->
<g id="node6" class="node">
<title>4</title>
<path fill="#e8e8f0" stroke="black" d="M675.1,-55C675.1,-55 705.1,-55 705.1,-55 711.1,-55 717.1,-61 717.1,-67 717.1,-67 717.1,-79 717.1,-79 717.1,-85 711.1,-91 705.1,-91 705.1,-91 675.1,-91 675.1,-91 669.1,-91 663.1,-85 663.1,-79 663.1,-79 663.1,-67 663.1,-67 663.1,-61 669.1,-55 675.1,-55"/>
<text xml:space="preserve" text-anchor="middle" x="690.1" y="-67.2" font-family="Helvetica,sans-Serif" font-size="14.00">4</text>
</g>
<!-- 3&#45;&gt;4 -->
<g id="edge6" class="edge">
<title>3&#45;&gt;4</title>
<path fill="none" stroke="#606060" d="M526.86,-45.51C532.64,-47.55 538.77,-49.51 544.6,-51 580.26,-60.1 621.89,-65.95 651.28,-69.31"/>
<polygon fill="#606060" stroke="#606060" points="650.86,-72.79 661.18,-70.4 651.62,-65.83 650.86,-72.79"/>
<text xml:space="preserve" text-anchor="middle" x="594.85" y="-70.13" font-family="Helvetica,sans-Serif" font-size="14.00" fill="red">test / 10&#45;14</text>
</g>
<!-- 3&#45;&gt;4 -->
<g id="edge7" class="edge">
<title>3&#45;&gt;4</title>
<path fill="none" stroke="#606060" d="M526.98,-28.54C556.79,-22.57 606.23,-16.7 645.1,-32 653.43,-35.28 661.12,-40.97 667.66,-47.08"/>
<polygon fill="#606060" stroke="#606060" points="664.75,-49.1 674.24,-53.81 669.76,-44.21 664.75,-49.1"/>
<text xml:space="preserve" text-anchor="middle" x="594.85" y="-33.7" font-family="Helvetica,sans-Serif" font-size="14.00" fill="red">concept3 / 10&#45;14</text>
</g>
<!-- 8 -->
<g id="node7" class="node">
<title>8</title>
<path fill="#e8e8f0" stroke="black" d="M1464.85,-15C1464.85,-15 1494.85,-15 1494.85,-15 1500.85,-15 1506.85,-21 1506.85,-27 1506.85,-27 1506.85,-39 1506.85,-39 1506.85,-45 1500.85,-51 1494.85,-51 1494.85,-51 1464.85,-51 1464.85,-51 1458.85,-51 1452.85,-45 1452.85,-39 1452.85,-39 1452.85,-27 1452.85,-27 1452.85,-21 1458.85,-15 1464.85,-15"/>
<text xml:space="preserve" text-anchor="middle" x="1479.85" y="-27.2" font-family="Helvetica,sans-Serif" font-size="14.00">8</text>
</g>
<!-- 3&#45;&gt;8 -->
<g id="edge8" class="edge">
<title>3&#45;&gt;8</title>
<path fill="none" stroke="#606060" d="M526.78,-23.68C532.57,-21.52 538.72,-19.48 544.6,-18 607.37,-2.22 624.38,0 689.1,0 689.1,0 689.1,0 1290.35,0 1355.13,0 1371.63,-4.9 1434.85,-19 1437.11,-19.5 1439.42,-20.07 1441.75,-20.69"/>
<polygon fill="#606060" stroke="#606060" points="1440.5,-23.97 1451.08,-23.37 1442.44,-17.24 1440.5,-23.97"/>
<text xml:space="preserve" text-anchor="middle" x="936.1" y="-1.7" font-family="Helvetica,sans-Serif" font-size="14.00" fill="red">concept2 / 10&#45;42</text>
</g>
<!-- 5 -->
<g id="node8" class="node">
<title>5</title>
<path fill="#e8e8f0" stroke="black" d="M822.1,-60C822.1,-60 852.1,-60 852.1,-60 858.1,-60 864.1,-66 864.1,-72 864.1,-72 864.1,-84 864.1,-84 864.1,-90 858.1,-96 852.1,-96 852.1,-96 822.1,-96 822.1,-96 816.1,-96 810.1,-90 810.1,-84 810.1,-84 810.1,-72 810.1,-72 810.1,-66 816.1,-60 822.1,-60"/>
<text xml:space="preserve" text-anchor="middle" x="837.1" y="-72.2" font-family="Helvetica,sans-Serif" font-size="14.00">5</text>
</g>
<!-- 4&#45;&gt;5 -->
<g id="edge9" class="edge">
<title>4&#45;&gt;5</title>
<path fill="none" stroke="#606060" d="M717.36,-73.91C740.04,-74.69 773.1,-75.83 798.57,-76.71"/>
<polygon fill="#606060" stroke="#606060" points="798.41,-80.2 808.52,-77.05 798.65,-73.21 798.41,-80.2"/>
<text xml:space="preserve" text-anchor="middle" x="763.6" y="-78.08" font-family="Helvetica,sans-Serif" font-size="14.00" fill="red">of / 15&#45;17</text>
</g>
<!-- &#45;2 -->
<g id="node11" class="node">
<title>&#45;2</title>
<ellipse fill="#e8e8f0" stroke="white" cx="1545.65" cy="-33" rx="1.8" ry="1.8"/>
</g>
<!-- 8&#45;&gt;&#45;2 -->
<g id="edge16" class="edge">
<title>8&#45;&gt;&#45;2</title>
<path fill="none" stroke="#606060" d="M1507.17,-33C1515.78,-33 1524.96,-33 1532.07,-33"/>
<polygon fill="#606060" stroke="#606060" points="1532.02,-36.5 1542.02,-33 1532.02,-29.5 1532.02,-36.5"/>
</g>
<!-- 6 -->
<g id="node9" class="node">
<title>6</title>
<path fill="#e8e8f0" stroke="black" d="M1043.35,-80C1043.35,-80 1073.35,-80 1073.35,-80 1079.35,-80 1085.35,-86 1085.35,-92 1085.35,-92 1085.35,-104 1085.35,-104 1085.35,-110 1079.35,-116 1073.35,-116 1073.35,-116 1043.35,-116 1043.35,-116 1037.35,-116 1031.35,-110 1031.35,-104 1031.35,-104 1031.35,-92 1031.35,-92 1031.35,-86 1037.35,-80 1043.35,-80"/>
<text xml:space="preserve" text-anchor="middle" x="1058.35" y="-92.2" font-family="Helvetica,sans-Serif" font-size="14.00">6</text>
</g>
<!-- 5&#45;&gt;6 -->
<g id="edge10" class="edge">
<title>5&#45;&gt;6</title>
<path fill="none" stroke="#606060" d="M864.18,-89.8C869.97,-91.93 876.15,-93.84 882.1,-95 928.79,-104.12 983.81,-103.22 1019.57,-101.14"/>
<polygon fill="#606060" stroke="#606060" points="1019.66,-104.64 1029.41,-100.5 1019.21,-97.65 1019.66,-104.64"/>
<text xml:space="preserve" text-anchor="middle" x="936.1" y="-104.21" font-family="Helvetica,sans-Serif" font-size="14.00" fill="red">the / 18&#45;21</text>
</g>
<!-- 5&#45;&gt;6 -->
<g id="edge11" class="edge">
<title>5&#45;&gt;6</title>
<path fill="none" stroke="#606060" d="M864.39,-74.95C894.85,-72.04 946.45,-69.04 990.1,-76 1000.04,-77.58 1010.51,-80.41 1020.14,-83.52"/>
<polygon fill="#606060" stroke="#606060" points="1018.97,-86.81 1029.56,-86.75 1021.24,-80.19 1018.97,-86.81"/>
<text xml:space="preserve" text-anchor="middle" x="936.1" y="-77.7" font-family="Helvetica,sans-Serif" font-size="14.00" fill="red">concept32 / 18&#45;21</text>
</g>
<!-- 7 -->
<g id="node10" class="node">
<title>7</title>
<path fill="#e8e8f0" stroke="black" d="M1274.35,-41C1274.35,-41 1304.35,-41 1304.35,-41 1310.35,-41 1316.35,-47 1316.35,-53 1316.35,-53 1316.35,-65 1316.35,-65 1316.35,-71 1310.35,-77 1304.35,-77 1304.35,-77 1274.35,-77 1274.35,-77 1268.35,-77 1262.35,-71 1262.35,-65 1262.35,-65 1262.35,-53 1262.35,-53 1262.35,-47 1268.35,-41 1274.35,-41"/>
<text xml:space="preserve" text-anchor="middle" x="1289.35" y="-53.2" font-family="Helvetica,sans-Serif" font-size="14.00">7</text>
</g>
<!-- 5&#45;&gt;7 -->
<g id="edge12" class="edge">
<title>5&#45;&gt;7</title>
<path fill="none" stroke="#606060" d="M864.52,-71.42C870.29,-70.14 876.38,-68.92 882.1,-68 1016.37,-46.44 1178.78,-52.25 1250.81,-56.43"/>
<polygon fill="#606060" stroke="#606060" points="1250.28,-59.9 1260.47,-57.02 1250.71,-52.92 1250.28,-59.9"/>
<text xml:space="preserve" text-anchor="middle" x="1058.35" y="-56.68" font-family="Helvetica,sans-Serif" font-size="14.00" fill="red">concept5 / 18&#45;34</text>
</g>
<!-- 6&#45;&gt;7 -->
<g id="edge13" class="edge">
<title>6&#45;&gt;7</title>
<path fill="none" stroke="#606060" d="M1085.62,-93.53C1126.23,-86.61 1204.43,-73.29 1250.94,-65.37"/>
<polygon fill="#606060" stroke="#606060" points="1251.27,-68.86 1260.54,-63.74 1250.1,-61.96 1251.27,-68.86"/>
<text xml:space="preserve" text-anchor="middle" x="1185.47" y="-88.18" font-family="Helvetica,sans-Serif" font-size="14.00" fill="red">tokenization / 22&#45;34</text>
</g>
<!-- 7&#45;&gt;8 -->
<g id="edge14" class="edge">
<title>7&#45;&gt;8</title>
<path fill="none" stroke="#606060" d="M1316.76,-59.37C1345.96,-59.27 1394.26,-57.61 1434.85,-49 1437.15,-48.51 1439.49,-47.93 1441.83,-47.28"/>
<polygon fill="#606060" stroke="#606060" points="1442.74,-50.67 1451.23,-44.32 1440.64,-43.99 1442.74,-50.67"/>
<text xml:space="preserve" text-anchor="middle" x="1384.6" y="-60.8" font-family="Helvetica,sans-Serif" font-size="14.00" fill="red">process / 35&#45;42</text>
</g>
<!-- 7&#45;&gt;8 -->
<g id="edge15" class="edge">
<title>7&#45;&gt;8</title>
<path fill="none" stroke="#606060" d="M1312.82,-40.61C1319.38,-36.27 1326.81,-32.26 1334.35,-30 1369.47,-19.47 1411.57,-21.94 1441.24,-25.99"/>
<polygon fill="#606060" stroke="#606060" points="1440.45,-29.41 1450.86,-27.44 1441.49,-22.49 1440.45,-29.41"/>
<text xml:space="preserve" text-anchor="middle" x="1384.6" y="-31.7" font-family="Helvetica,sans-Serif" font-size="14.00" fill="red">concept8 / 35&#45;42</text>
</g>
</g>
</svg>
